<?xml version="1.0" encoding="UTF-8"?><svg xmlns="http://www.w3.org/2000/svg" xmlns:xlink="http://www.w3.org/1999/xlink" contentScriptType="text/ecmascript" zoomAndPan="magnify" contentStyleType="text/css" style="stroke-opacity: 1.0;" version="1.0" width="48" fill="none" preserveAspectRatio="xMidYMid meet" viewBox="0 0 48 48" height="48" opacity="1.0">
<path fill="#93C5FD" fill-opacity="1.0" stroke-width="2.0" d="M43 4H5C4.44772 4 4 4.48842 4 5.09091V14.9091C4 15.5116 4.44772 16 5 16H43C43.5523 16 44 15.5116 44 14.9091V5.09091C44 4.48842 43.5523 4 43 4Z" stroke-linejoin="round" stroke="#93C5FD"/>
<path fill="#93C5FD" fill-opacity="1.0" stroke-width="2.0" d="M43 32H5C4.44772 32 4 32.4884 4 33.0909V42.9091C4 43.5116 4.44772 44 5 44H43C43.5523 44 44 43.5116 44 42.9091V33.0909C44 32.4884 43.5523 32 43 32Z" stroke-linejoin="round" stroke="#93C5FD"/>
<path d="M14 16V24.0083L34 24.0172V32" stroke-width="2.0" stroke-linejoin="round" stroke-linecap="round" stroke="#93C5FD"/>
<path d="M18 38H30" stroke-width="2.0" stroke-linejoin="round" stroke-linecap="round" stroke="white"/>
<path d="M18 10H30" stroke-width="2.0" stroke-linejoin="round" stroke-linecap="round" stroke="white"/>
</svg>