<?xml version="1.0" encoding="UTF-8"?><svg xmlns="http://www.w3.org/2000/svg" xmlns:xlink="http://www.w3.org/1999/xlink" contentScriptType="text/ecmascript" zoomAndPan="magnify" contentStyleType="text/css" style="stroke-opacity: 1.0;" version="1.0" width="48" fill="none" preserveAspectRatio="xMidYMid meet" viewBox="0 0 48 48" height="48" opacity="1.0">
<path fill="#D1D5DB" fill-opacity="1.0" stroke-width="2.0" d="M37 44C39.2091 44 41 42.2091 41 40C41 37.7909 39.2091 36 37 36C34.7909 36 33 37.7909 33 40C33 42.2091 34.7909 44 37 44Z" stroke-linejoin="round" stroke="#D1D5DB"/>
<path fill="#D1D5DB" fill-opacity="1.0" stroke-width="2.0" d="M11 12C13.2091 12 15 10.2091 15 8C15 5.79086 13.2091 4 11 4C8.79086 4 7 5.79086 7 8C7 10.2091 8.79086 12 11 12Z" stroke-linejoin="round" stroke="#D1D5DB"/>
<path fill="#D1D5DB" fill-opacity="1.0" stroke-width="2.0" d="M11 44C13.2091 44 15 42.2091 15 40C15 37.7909 13.2091 36 11 36C8.79086 36 7 37.7909 7 40C7 42.2091 8.79086 44 11 44Z" stroke-linejoin="round" stroke="#D1D5DB"/>
<path d="M11 12V36" stroke-width="2.0" stroke-linejoin="round" stroke-linecap="round" stroke="#D1D5DB"/>
<path d="M24 10H33C35.2091 10 37 11.7909 37 14V36" stroke-width="2.0" stroke-linejoin="round" stroke-linecap="round" stroke="#D1D5DB"/>
<path d="M30 16L24 10L30 4" stroke-width="2.0" stroke-linejoin="round" stroke-linecap="round" stroke="#D1D5DB"/>
</svg>