<?xml version="1.0" encoding="UTF-8"?><svg xmlns="http://www.w3.org/2000/svg" xmlns:xlink="http://www.w3.org/1999/xlink" contentScriptType="text/ecmascript" zoomAndPan="magnify" contentStyleType="text/css" style="stroke-opacity: 1.0;" version="1.0" width="48" fill="none" preserveAspectRatio="xMidYMid meet" viewBox="0 0 48 48" height="48" opacity="1.0">
<path fill="#3B82F6" fill-opacity="1.0" stroke-width="2.0" d="M24 42C36 42 38 31.5324 38 28C38 24.8379 38 20.1712 38 14H10C10 17.4423 10 22.109 10 28C10 31.4506 12 42 24 42Z" stroke-linejoin="round" stroke="#3B82F6"/>
<path d="M4 8L10 14" stroke-width="2.0" stroke-linejoin="round" stroke-linecap="round" stroke="#3B82F6"/>
<path d="M44 8L38 14" stroke-width="2.0" stroke-linejoin="round" stroke-linecap="round" stroke="#3B82F6"/>
<path d="M4 27H10" stroke-width="2.0" stroke-linejoin="round" stroke-linecap="round" stroke="#3B82F6"/>
<path d="M44 27H38" stroke-width="2.0" stroke-linejoin="round" stroke-linecap="round" stroke="#3B82F6"/>
<path d="M7 44L13 38" stroke-width="2.0" stroke-linejoin="round" stroke-linecap="round" stroke="#3B82F6"/>
<path d="M41 44L35 38" stroke-width="2.0" stroke-linejoin="round" stroke-linecap="round" stroke="#3B82F6"/>
<path d="M24 42V14" stroke-width="2.0" stroke-linejoin="round" stroke-linecap="round" stroke="white"/>
<path d="M14.9204 39.0407C17.0024 40.783 19.9244 41.9998 23.9999 41.9998C28.1112 41.9998 31.0487 40.7712 33.1341 39.0137" stroke-width="2.0" stroke-linejoin="round" stroke-linecap="round" stroke="#3B82F6"/>
<path fill="#3B82F6" fill-opacity="1.0" stroke-width="2.0" d="M32 12.3333C32 7.73096 28.4183 4 24 4C19.5817 4 16 7.73096 16 12.3333V14H32V12.3333Z" stroke-linejoin="round" stroke="#3B82F6"/>
</svg>